# xmcd
#
# Track frame offsets:
# 150
# 15372
# 31767
#
# Disc length: 663 seconds
#
#
# Revision: 2
# Processed by: cddbd v1.5.2PL0 Copyright (c) Steve Scherf et al.
# Submitted via: FreeRIP 2.96 
#
DISCID=11029503
DTITLE=Höhner - Dicke Mädchen Haben Schöne Namen
DYEAR=2001
DGENRE=Kölsch
TTITLE0=Dicke Mädchen Haben Schöne Namen
TTITLE1=Dicke Mädchen Haben Schöne Namen (Party Mix)
TTITLE2=Heim jommer nit
EXTD=
EXTT0=
EXTT1=
EXTT2=
PLAYORDER=
